<svg id="Layer_1" data-name="Layer 1" xmlns="http://www.w3.org/2000/svg" viewBox="0 0 354.08 317.24">
  <defs>
    <style>
      .cls-1 {
        fill: #fff;
      }
    </style>
  </defs>
  <title>VH Logo Without Text</title>
  <g>
    <path class="cls-1" d="M1259.83,782.15h-18.44a7.3,7.3,0,0,0-6.38,4.44l-77.7,209.65-78-209.64a7.32,7.32,0,0,0-6.39-4.44h-18.44a3.07,3.07,0,0,0-3.09,4.44l91.19,245.18a6,6,0,0,0,.93,1.6l-9.83,26.53L1032.41,786.61a7.3,7.3,0,0,0-6.38-4.44h-18.44a3.08,3.08,0,0,0-3.09,4.44l114.16,308a6.59,6.59,0,0,0,1.92,2.63,3.1,3.1,0,0,0,3.24,2.13h18.44a6.13,6.13,0,0,0,2.11-.41,3.18,3.18,0,0,0,1.64-.85,6.91,6.91,0,0,0,2.63-3.19L1262.92,786.6A3.08,3.08,0,0,0,1259.83,782.15Z" transform="translate(-1004.22 -782.15)"/>
    <path class="cls-1" d="M1354.93,782.15h-18.44a7.3,7.3,0,0,0-6.38,4.44L1215.83,1095a3.08,3.08,0,0,0,3.09,4.44h18.44a7.31,7.31,0,0,0,6.38-4.44L1358,786.6A3.08,3.08,0,0,0,1354.93,782.15Z" transform="translate(-1004.22 -782.15)"/>
    <path class="cls-1" d="M1240.89,960.6h-18.44a7.3,7.3,0,0,0-6.38,4.44L1167.92,1095a3.07,3.07,0,0,0,3.06,4.44h18.51a7.31,7.31,0,0,0,6.3-4.33L1244,965A3.07,3.07,0,0,0,1240.89,960.6Z" transform="translate(-1004.22 -782.15)"/>
    <path class="cls-1" d="M1229.63,940.83h18.44a7.3,7.3,0,0,0,6.38-4.44L1310,786.48c.77-2.07-.11-3.8-2-4.29a3.89,3.89,0,0,0-.42,0H1288a5.22,5.22,0,0,0-1.5.25,7.78,7.78,0,0,0-3.3,2.28,5.24,5.24,0,0,0-.78,1.37l-56.1,151.37C1226.07,939.37,1227.39,940.83,1229.63,940.83Z" transform="translate(-1004.22 -782.15)"/>
  </g>
</svg>
