<svg xmlns="http://www.w3.org/2000/svg" version="1" viewBox="0 0 8200 8000" style="shape-rendering:crispEdges"><g style="display:inline"><path style="opacity:1;fill:#ff8383;fill-opacity:1;stroke-width:6.08580589" d="M1600 0h6000v200H1600z"/><path style="opacity:1;fill:#ff8383;fill-opacity:1;stroke-width:1.11111104" d="M1400 200h200v200h-200zM1200 400h200v200h-200z"/><path style="opacity:1;fill:#ff8383;fill-opacity:1;stroke-width:5.44331026" d="M1000 600h200v4800h-200z"/><path style="opacity:1;fill:#ff8383;fill-opacity:1;stroke-width:5.87944698" d="M1200 5200h5600v200H1200z"/><path style="opacity:1;fill:#fadfdd;fill-opacity:1;stroke-width:5.7718215" d="M1400 5001h5397v200H1400z"/><path style="opacity:1;fill:#fadfdd;fill-opacity:1;stroke-width:7.02728081" d="M6400 1000h400v4000h-400z"/><path style="opacity:1;fill:#ffadad;fill-opacity:1;stroke-width:5.77350235" d="M1800 200h5400v200H1800zM1600 400h5400v200H1600z"/><path style="opacity:1;fill:#ffadad;fill-opacity:1;stroke-width:8.59446239" d="M6800 800h598v4000h-598z"/><path style="opacity:1;fill:#ffadad;fill-opacity:1;stroke-width:1.11111104" d="M6800 800h200v200h-200zM7000 600h200v200h-200zM7200 400h200v200h-200zM7000 800h200v200h-200zM7200 600h200v200h-200z"/><path style="opacity:1;fill:#ffadad;fill-opacity:1;stroke-width:1.11111104" d="M7000 800h200v200h-200zM7200 800h200v200h-200zM6800 5000h200v200h-200zM7000 4800h200v200h-200zM7200 4600h200v200h-200zM6800 4800h200v200h-200z"/><path style="opacity:1;fill:#fadfdd;fill-opacity:1;stroke-width:5.21157312" d="M7400 200h200v4400h-200z"/><path style="opacity:1;fill:#454545;fill-opacity:1;stroke-width:5.21157312" d="M7600 200h200v4400h-200z"/><path style="opacity:1;fill:#454545;fill-opacity:1;stroke-width:1.11111104" d="M7400 4600h200v200h-200zM7200 4800h200v200h-200zM7000 5000h200v200h-200zM6800 5200h200v200h-200z"/><path style="opacity:1;fill:#ffadad;fill-opacity:1;stroke-width:1.11111104" d="M7400 4800h200v200h-200zM7200 5000h200v200h-200zM7000 5200h200v200h-200zM6800 5400h200v200h-200z"/><path style="opacity:1;fill:#fffefe;fill-opacity:1;stroke-width:1.11111104" d="M7400 5000h200v200h-200zM7200 5200h200v200h-200zM7000 5400h200v200h-200zM6800 5600h200v200h-200z"/><path style="opacity:1;fill:#ffadad;fill-opacity:1;stroke-width:1.11111104" d="M7600 4600h200v200h-200z"/><path style="opacity:1;fill:#fffefe;fill-opacity:1;stroke-width:1.11111104" d="M7600 4800h200v200h-200zM7800 4600h200v200h-200z"/><path style="opacity:1;fill:#d88d8d;fill-opacity:1;stroke-width:1.11111104" d="M7400 5200h200v200h-200zM7600 5000h200v200h-200zM7800 4800h200v200h-200z"/><path style="opacity:1;fill:#ffadad;fill-opacity:1;stroke-width:1.11111104" d="M7400 5400h200v200h-200zM7600 5200h200v200h-200zM7800 5000h200v200h-200z"/><path style="opacity:1;fill:#d88d8d;fill-opacity:1;stroke-width:1.11111104" d="M7400 5600h200v200h-200zM7600 5400h200v200h-200zM7800 5200h200v200h-200z"/><path style="opacity:1;fill:#ffadad;fill-opacity:1;stroke-width:1.11111104" d="M7400 5800h200v200h-200zM7600 5600h200v200h-200zM7800 5400h200v200h-200z"/><path style="opacity:1;fill:#d88d8d;fill-opacity:1;stroke-width:1.11111104" d="M7400 6000h200v200h-200zM7600 5800h200v200h-200zM7800 5600h200v200h-200zM7400 6400h200v200h-200zM7600 6200h200v200h-200zM7800 6000h200v200h-200zM7400 6800h200v200h-200zM7600 6600h200v200h-200zM7800 6400h200v200h-200z"/><path style="opacity:1;fill:#ffadad;fill-opacity:1;stroke-width:1.11111104" d="M7400 6600h200v200h-200zM7600 6400h200v200h-200zM7800 6200h200v200h-200zM7400 6200h200v200h-200zM7600 6000h200v200h-200zM7800 5800h200v200h-200z"/><path style="opacity:1;fill:#d88d8d;fill-opacity:1;stroke-width:1.11111104" d="M7200 6600h200v200h-200z"/><path style="opacity:1;fill:#ffadad;fill-opacity:1;stroke-width:1.11111104" d="M7800 6600h200v200h-200z"/><path style="opacity:1;fill:#ffadad;fill-opacity:1;stroke-width:1.57134831" d="M7000 6800h400v200h-400zM6800 6600h400v200h-400z"/><path style="opacity:1;fill:#ffadad;fill-opacity:1;stroke-width:3.84900141" d="M6800 5800h600v800h-600z"/><path style="opacity:1;fill:#ffadad;fill-opacity:1;stroke-width:1.57134831" d="M7000 5600h400v200h-400zM7200 5400h400v200h-400z"/><path style="opacity:1;fill:#454545;fill-opacity:1;stroke-width:5.87944698" d="M1200 5400h5600v200H1200z"/><path style="opacity:1;fill:#ffadad;fill-opacity:1;stroke-width:6.08580589" d="M800 5600h6000v200H800z"/><path style="opacity:1;fill:#ffadad;fill-opacity:1;stroke-width:3.14269662" d="M5200 6400h1600v200H5200z"/><path style="opacity:1;fill:#ffadad;fill-opacity:1;stroke-width:2.22222233" d="M6600 5800h200v800h-200z"/><path style="opacity:1;fill:#645150;fill-opacity:1;stroke-width:2.72165513" d="M5000 6000h1200v200H5000z"/><path style="opacity:1;fill:#cca9a6;fill-opacity:1;stroke-width:2.72165513" d="M5000 5800h1200v200H5000z"/><path style="opacity:1;fill:#fadfdd;fill-opacity:1;stroke-width:2.72165537" d="M6200 5800h400v600h-400z"/><path style="opacity:1;fill:#fadfdd;fill-opacity:1;stroke-width:4.30331469" d="M3600 6200h3000v200H3600z"/><path style="opacity:1;fill:#fadfdd;fill-opacity:1;stroke-width:1.57134831" d="M4600 6000h400v200h-400z"/><path style="opacity:1;fill:#fadfdd;fill-opacity:1;stroke-width:1.11111104" d="M4800 5800h200v200h-200z"/><path style="opacity:1;fill:#fffefe;fill-opacity:1;stroke-width:1.11111104" d="M4600 5800h200v200h-200zM4400 6000h200v200h-200z"/><path style="opacity:1;fill:#fadfdd;fill-opacity:1;stroke-width:2.22222257" d="M3600 6000h800v200h-800zM3800 5800h800v200h-800z"/><path style="opacity:1;fill:#fadfdd;fill-opacity:1;stroke-width:1.11111104" d="M3400 6200h200v200h-200zM3000 6200h200v200h-200zM3200 6000h200v200h-200zM3400 5800h200v200h-200z"/><path style="opacity:1;fill:#fffefe;fill-opacity:1;stroke-width:1.11111104" d="M3200 6200h200v200h-200zM3400 6000h200v200h-200zM3600 5800h200v200h-200z"/><path style="opacity:1;fill:#fadfdd;fill-opacity:1;stroke-width:1.11111104" d="M2600 6200h200v200h-200zM2800 6000h200v200h-200zM3000 5800h200v200h-200z"/><path style="opacity:1;fill:#fffefe;fill-opacity:1;stroke-width:1.11111104" d="M2800 6200h200v200h-200zM3000 6000h200v200h-200zM3200 5800h200v200h-200z"/><path style="opacity:1;fill:#fadfdd;fill-opacity:1;stroke-width:1.11111104" d="M2200 6200h200v200h-200zM2400 6000h200v200h-200zM2600 5800h200v200h-200z"/><path style="opacity:1;fill:#fffefe;fill-opacity:1;stroke-width:1.11111104" d="M2400 6200h200v200h-200zM2600 6000h200v200h-200zM2800 5800h200v200h-200z"/><path style="opacity:1;fill:#fadfdd;fill-opacity:1;stroke-width:1.11111104" d="M1800 6200h200v200h-200zM2000 6000h200v200h-200zM2200 5800h200v200h-200z"/><path style="opacity:1;fill:#fffefe;fill-opacity:1;stroke-width:1.11111104" d="M2000 6200h200v200h-200zM2200 6000h200v200h-200zM2400 5800h200v200h-200z"/><path style="opacity:1;fill:#fadfdd;fill-opacity:1;stroke-width:1.11111104" d="M1400 6200h200v200h-200zM1600 6000h200v200h-200zM1800 5800h200v200h-200z"/><path style="opacity:1;fill:#fffefe;fill-opacity:1;stroke-width:1.11111104" d="M1600 6200h200v200h-200zM1800 6000h200v200h-200zM2000 5800h200v200h-200z"/><path style="opacity:1;fill:#fadfdd;fill-opacity:1;stroke-width:1.11111104" d="M1400 5800h200v200h-200z"/><path style="opacity:1;fill:#fffefe;fill-opacity:1;stroke-width:1.11111104" d="M1600 5800h200v200h-200z"/><path style="opacity:1;fill:#fadfdd;fill-opacity:1;stroke-width:1.11111104" d="M1000 5800h200v200h-200z"/><path style="opacity:1;fill:#fffefe;fill-opacity:1;stroke-width:1.11111104" d="M1200 5800h200v200h-200z"/><path style="opacity:1;fill:#fadfdd;fill-opacity:1;stroke-width:1.11111104" d="M1000 6200h200v200h-200z"/><path style="opacity:1;fill:#fffefe;fill-opacity:1;stroke-width:1.11111104" d="M1200 6200h200v200h-200z"/><path style="opacity:1;fill:#fadfdd;fill-opacity:1;stroke-width:1.11111104" d="M800 6000h200v200H800z"/><path style="opacity:1;fill:#fffefe;fill-opacity:1;stroke-width:1.11111104" d="M1000 6000h200v200h-200zM800 5800h200v200H800zM800 6200h200v200H800z"/><path style="opacity:1;fill:#6ce432;fill-opacity:1;stroke-width:1.11111104" d="M1200 6000h200v200h-200z"/><path style="opacity:1;fill:#3c7520;fill-opacity:1;stroke-width:1.11111104" d="M1400 6000h200v200h-200z"/><path style="opacity:1;fill:#454545;fill-opacity:1;stroke-width:1.11111104" d="M7800 4400h200v200h-200z"/><path style="opacity:1;fill:#454545;fill-opacity:1;stroke-width:3.6851387" d="M8000 4600h200v2200h-200z"/><path style="opacity:1;fill:#454545;fill-opacity:1;stroke-width:1.11111104" d="M7800 6800h200v200h-200zM7600 6800h200v200h-200zM7400 7000h200v200h-200z"/><path style="opacity:1;fill:#454545;fill-opacity:1;stroke-width:1.92450082" d="M6800 7200h600v200h-600z"/><path style="opacity:1;fill:#454545;fill-opacity:1;stroke-width:1.92450082" d="M6800 6800h200v600h-200z"/><path style="opacity:1;fill:#ffadad;fill-opacity:1;stroke-width:6.08580589" d="M800 6400h6000v200H800z"/><path style="opacity:1;fill:#cdcdcd;fill-opacity:1;stroke-width:2.22222233" d="M600 5800h200v800H600z"/><path style="opacity:1;fill:#cdcdcd;fill-opacity:1;stroke-width:1.11111116" d="M400 6600h200v200H400zM200 6800h200v200H200z"/><path style="opacity:1;fill:#cdcdcd;fill-opacity:1;stroke-width:1.57134843" d="M0 7000h200v400H0z"/><path style="opacity:1;fill:#fadfdd;fill-opacity:1;stroke-width:1.11111104" d="M400 6800h200v200H400zM200 7000h200v200H200z"/><path style="opacity:1;fill:#645150;fill-opacity:1;stroke-width:1.11111104" d="M400 7000h200v200H400zM600 6800h200v200H600z"/><path style="opacity:1;fill:#fadfdd;fill-opacity:1;stroke-width:1.11111104" d="M1000 6800h200v200h-200zM800 7000h200v200H800z"/><path style="opacity:1;fill:#645150;fill-opacity:1;stroke-width:1.11111104" d="M1000 7000h200v200h-200zM1200 6800h200v200h-200z"/><path style="opacity:1;fill:#fadfdd;fill-opacity:1;stroke-width:1.11111104" d="M1600 6800h200v200h-200zM1400 7000h200v200h-200z"/><path style="opacity:1;fill:#645150;fill-opacity:1;stroke-width:1.11111104" d="M1600 7000h200v200h-200zM1800 6800h200v200h-200z"/><path style="opacity:1;fill:#fadfdd;fill-opacity:1;stroke-width:1.11111104" d="M2200 6800h200v200h-200zM2000 7000h200v200h-200z"/><path style="opacity:1;fill:#645150;fill-opacity:1;stroke-width:1.11111104" d="M2200 7000h200v200h-200zM2400 6800h200v200h-200z"/><path style="opacity:1;fill:#fadfdd;fill-opacity:1;stroke-width:1.11111104" d="M2800 6800h200v200h-200zM2600 7000h200v200h-200z"/><path style="opacity:1;fill:#645150;fill-opacity:1;stroke-width:1.11111104" d="M2800 7000h200v200h-200zM3000 6800h200v200h-200z"/><path style="opacity:1;fill:#fadfdd;fill-opacity:1;stroke-width:1.11111104" d="M3400 6800h200v200h-200zM3200 7000h200v200h-200z"/><path style="opacity:1;fill:#645150;fill-opacity:1;stroke-width:1.11111104" d="M3400 7000h200v200h-200zM3600 6800h200v200h-200z"/><path style="opacity:1;fill:#fadfdd;fill-opacity:1;stroke-width:1.11111104" d="M4000 6800h200v200h-200zM3800 7000h200v200h-200z"/><path style="opacity:1;fill:#645150;fill-opacity:1;stroke-width:1.11111104" d="M4000 7000h200v200h-200zM4200 6800h200v200h-200z"/><path style="opacity:1;fill:#fadfdd;fill-opacity:1;stroke-width:1.11111104" d="M4600 6800h200v200h-200zM4400 7000h200v200h-200z"/><path style="opacity:1;fill:#645150;fill-opacity:1;stroke-width:1.11111104" d="M4600 7000h200v200h-200zM4800 6800h200v200h-200z"/><path style="opacity:1;fill:#fadfdd;fill-opacity:1;stroke-width:1.11111104" d="M5200 6800h200v200h-200zM5000 7000h200v200h-200z"/><path style="opacity:1;fill:#645150;fill-opacity:1;stroke-width:1.11111104" d="M5200 7000h200v200h-200zM5400 6800h200v200h-200z"/><path style="opacity:1;fill:#fadfdd;fill-opacity:1;stroke-width:1.11111104" d="M5800 6800h200v200h-200zM5600 7000h200v200h-200z"/><path style="opacity:1;fill:#645150;fill-opacity:1;stroke-width:1.11111104" d="M5800 7000h200v200h-200zM6000 6800h200v200h-200z"/><path style="opacity:1;fill:#fffefe;fill-opacity:1;stroke-width:1.11111104" d="M5400 7000h200v200h-200zM5600 6800h200v200h-200zM4800 7000h200v200h-200zM5000 6800h200v200h-200z"/><path style="opacity:1;fill:#fffefe;fill-opacity:1;stroke-width:1.92450082" d="M6000 7000h600v200h-600zM6200 6800h600v200h-600z"/><path style="opacity:1;fill:#fffefe;fill-opacity:1;stroke-width:1.11111104" d="M4200 7000h200v200h-200zM4400 6800h200v200h-200zM3600 7000h200v200h-200zM3800 6800h200v200h-200zM3000 7000h200v200h-200zM3200 6800h200v200h-200zM2400 7000h200v200h-200zM2600 6800h200v200h-200zM1800 7000h200v200h-200zM2000 6800h200v200h-200zM1200 7000h200v200h-200zM1400 6800h200v200h-200zM600 7000h200v200H600zM800 6800h200v200H800z"/><path style="opacity:1;fill:#fffefe;fill-opacity:1;stroke-width:6.18640471" d="M600 6600h6200v200H600zM200 7200h6200v200H200z"/><path style="opacity:1;fill:#fffefe;fill-opacity:1;stroke-width:1.57134831" d="M0 7400h400v200H0z"/><path style="opacity:1;fill:#fadfdd;fill-opacity:1;stroke-width:1.11111104" d="M0 7600h200v200H0z"/><path style="opacity:1;fill:#fadfdd;fill-opacity:1;stroke-width:6.08580589" d="M400 7400h6000v200H400z"/><path style="opacity:1;fill:#fadfdd;fill-opacity:1;stroke-width:1.11111104" d="M6600 7000h200v200h-200zM6400 7200h200v200h-200z"/><path style="opacity:1;fill:#ff8383;fill-opacity:1;stroke-width:1.11111104" d="M6600 7200h200v200h-200zM6400 7400h200v200h-200z"/><path style="opacity:1;fill:#454545;fill-opacity:1;stroke-width:1.11111104" d="M6600 7400h200v200h-200zM6400 7600h200v200h-200z"/><path style="opacity:1;fill:#ff8383;fill-opacity:1;stroke-width:6.18640471" d="M200 7600h6200v200H200z"/><path style="opacity:1;fill:#454545;fill-opacity:1;stroke-width:6.18640471" d="M200 7800h6200v200H200z"/><path style="opacity:1;fill:#ffadad;fill-opacity:1;stroke-width:5.77350235" d="M1600 400h5400v200H1600z"/><path style="opacity:1;fill:#fffefe;fill-opacity:1;stroke-width:1.11111104" d="M1600 200h200v200h-200zM1400 400h200v200h-200zM7000 400h200v200h-200zM7200 200h200v200h-200zM6800 600h200v200h-200z"/><path style="opacity:1;fill:#fffefe;fill-opacity:1;stroke-width:8.29137802" d="M1200 600h5600v398H1200z"/><path style="opacity:1;fill:#fffefe;fill-opacity:1;stroke-width:7.369946" d="M1200 600h400v4400h-400z"/><path style="opacity:1;fill:#fffefe;fill-opacity:1;stroke-width:1.11111104" d="M1200 5001h200v200h-200z"/><path style="opacity:1;fill:#fffefe;fill-opacity:1;stroke-width:9.81627464" d="M1200 4400h5200v600H1200z"/><path style="opacity:1;fill:#fffefe;fill-opacity:1;stroke-width:7.369946" d="M6000 600h400v4400h-400z"/><path style="opacity:1;fill:#454545;fill-opacity:1;stroke-width:5.21157265" d="M1600 1000h4400v200H1600z"/><path style="opacity:1;fill:#454545;fill-opacity:1;stroke-width:4.58122873" d="M1600 1000h200v3400h-200z"/><path style="opacity:1;fill:#6be6f5;fill-opacity:1;stroke-width:4.44444466" d="M1800 1200h200v3200h-200z"/><path style="opacity:1;fill:#d9fbff;fill-opacity:1;stroke-width:1.11111104" d="M2000 1400h200v200h-200zM2200 1600h200v200h-200zM2400 1400h200v200h-200zM2400 1800h200v200h-200zM2000 1800h200v200h-200z"/><path style="opacity:1;fill:#fadfdd;fill-opacity:1;stroke-width:1.11111104" d="M2600 1800h200v200h-200z"/><path style="opacity:1;fill:#90b35b;fill-opacity:1;stroke-width:1.11111104" d="M2800 1800h200v200h-200z"/><path style="opacity:1;fill:#6be6f5;fill-opacity:1;stroke-width:1.11111104" d="M2200 1400h200v200h-200zM2400 1600h200v200h-200zM2000 1600h200v200h-200zM2200 1800h200v200h-200z"/><path style="opacity:1;fill:#6be6f5;fill-opacity:1;stroke-width:3.84900188" d="M2000 2000h200v2400h-200z"/><path style="opacity:1;fill:#6be6f5;fill-opacity:1;stroke-width:3.33333302" d="M2000 1200h1800v200H2000z"/><path style="opacity:1;fill:#6be6f5;fill-opacity:1;stroke-width:2.93972349" d="M2600 1400h1400v200H2600z"/><path style="opacity:1;fill:#6be6f5;fill-opacity:1;stroke-width:3.84900165" d="M2600 1600h2400v200H2600z"/><path style="opacity:1;fill:#6be6f5;fill-opacity:1;stroke-width:1.11111104" d="M4000 1200h200v200h-200zM4200 1400h200v200h-200z"/><path style="opacity:1;fill:#55bcc8;fill-opacity:1;stroke-width:1.11111104" d="M3800 1200h200v200h-200zM4000 1400h200v200h-200z"/><path style="opacity:1;fill:#6be6f5;fill-opacity:1;stroke-width:1.11111104" d="M4400 1200h200v200h-200zM4600 1400h200v200h-200z"/><path style="opacity:1;fill:#55bcc8;fill-opacity:1;stroke-width:1.11111104" d="M4200 1200h200v200h-200zM4400 1400h200v200h-200z"/><path style="opacity:1;fill:#6be6f5;fill-opacity:1;stroke-width:1.11111104" d="M4800 1200h200v200h-200zM5000 1400h200v200h-200z"/><path style="opacity:1;fill:#55bcc8;fill-opacity:1;stroke-width:1.11111104" d="M4600 1200h200v200h-200zM4800 1400h200v200h-200z"/><path style="opacity:1;fill:#55bcc8;fill-opacity:1;stroke-width:2.48451972" d="M5000 1200h1000v200H5000z"/><path style="opacity:1;fill:#55bcc8;fill-opacity:1;stroke-width:2.22222209" d="M5200 1400h800v200h-800z"/><path style="opacity:1;fill:#6be6f5;fill-opacity:1;stroke-width:2.22222209" d="M2200 2000h400v400h-400z"/><path style="opacity:1;fill:#fadfdd;fill-opacity:1;stroke-width:3.33333302" d="M3000 1800h1800v200H3000z"/><path style="opacity:1;fill:#fadfdd;fill-opacity:1;stroke-width:1.11111104" d="M2200 2400h200v200h-200z"/><path style="opacity:1;fill:#90b35b;fill-opacity:1;stroke-width:1.11111104" d="M2400 2400h200v200h-200z"/><path style="opacity:1;fill:#fadfdd;fill-opacity:1;stroke-width:3.33333302" d="M2600 2400h1800v200H2600z"/><path style="opacity:1;fill:#fffefe;fill-opacity:1;stroke-width:3.84900165" d="M2200 2600h400v1200h-400z"/><path style="opacity:1;fill:#fffefe;fill-opacity:1;stroke-width:2.22222209" d="M2600 2000h400v400h-400zM3200 2000h400v400h-400zM4200 2000h400v400h-400z"/><path style="opacity:1;fill:#fffefe;fill-opacity:1;stroke-width:1.11111104" d="M3000 2000h200v200h-200zM3600 2000h200v200h-200zM4000 2000h200v200h-200zM3800 2200h200v200h-200zM3800 2000h200v200h-200z"/><path style="opacity:1;fill:#fffefe;fill-opacity:1;stroke-width:2.48451972" d="M4400 2400h200v1000h-200z"/><path style="opacity:1;fill:#484496;fill-opacity:1;stroke-width:1.11111104" d="M4000 2200h200v200h-200zM3600 2200h200v200h-200zM3000 2200h200v200h-200z"/><path style="opacity:1;fill:#454545;fill-opacity:1;stroke-width:2.93972373" d="M4600 2000h200v1400h-200z"/><path style="opacity:1;fill:#fffefe;fill-opacity:1;stroke-width:1.11111104" d="M3200 2800h200v200h-200zM3200 3200h200v200h-200z"/><path style="opacity:1;fill:#fffefe;fill-opacity:1;stroke-width:1.57134831" d="M3000 3400h400v200h-400z"/><path style="opacity:1;fill:#fffefe;fill-opacity:1;stroke-width:1.92450082" d="M2800 2800h200v600h-200z"/><path style="opacity:1;fill:#fffefe;fill-opacity:1;stroke-width:1.11111104" d="M2600 3400h200v200h-200z"/><path style="opacity:1;fill:#484496;fill-opacity:1;stroke-width:1.92450082" d="M2600 2800h200v600h-200zM3000 2800h200v600h-200z"/><path style="opacity:1;fill:#484496;fill-opacity:1;stroke-width:1.11111104" d="M2800 3400h200v200h-200zM3200 3000h200v200h-200z"/><path style="opacity:1;fill:#484496;fill-opacity:1;stroke-width:2.22222209" d="M3400 2800h200v800h-200z"/><path style="opacity:1;fill:#fffefe;fill-opacity:1;stroke-width:3.14269662" d="M2600 3600h1600v200H2600z"/><path style="opacity:1;fill:#fffefe;fill-opacity:1;stroke-width:4.71321249" d="M3600 2600h600v1200h-600z"/><path style="opacity:1;fill:#fffefe;fill-opacity:1;stroke-width:2.48451972" d="M2600 2600h1000v200H2600z"/><path style="opacity:1;fill:#6be6f5;fill-opacity:1;stroke-width:6.38231945" d="M2200 3800h2200v600H2200z"/><path style="opacity:1;fill:#454545;fill-opacity:1;stroke-width:2.72165537" d="M4200 2600h200v1200h-200z"/><path style="opacity:1;fill:#6be6f5;fill-opacity:1;stroke-width:2.22222209" d="M4400 3400h400v400h-400zM4400 3800h400v400h-400z"/><path style="opacity:1;fill:#6be6f5;fill-opacity:1;stroke-width:1.11111104" d="M4600 4200h200v200h-200z"/><path style="opacity:1;fill:#55bcc8;fill-opacity:1;stroke-width:1.11111104" d="M4400 4200h200v200h-200zM4800 4200h200v200h-200z"/><path style="opacity:1;fill:#6be6f5;fill-opacity:1;stroke-width:1.11111104" d="M5000 4200h200v200h-200zM5400 4200h200v200h-200z"/><path style="opacity:1;fill:#55bcc8;fill-opacity:1;stroke-width:1.11111104" d="M5200 4200h200v200h-200zM5600 4200h200v200h-200z"/><path style="opacity:1;fill:#55bcc8;fill-opacity:1;stroke-width:4.44444466" d="M5800 1200h200v3200h-200z"/><path style="opacity:1;fill:#6be6f5;fill-opacity:1;stroke-width:1.11111104" d="M5600 4000h200v200h-200z"/><path style="opacity:1;fill:#55bcc8;fill-opacity:1;stroke-width:1.11111104" d="M5400 4000h200v200h-200z"/><path style="opacity:1;fill:#6be6f5;fill-opacity:1;stroke-width:1.11111104" d="M5400 3800h200v200h-200z"/><path style="opacity:1;fill:#55bcc8;fill-opacity:1;stroke-width:1.11111104" d="M5600 3800h200v200h-200z"/><path style="opacity:1;fill:#6be6f5;fill-opacity:1;stroke-width:1.11111104" d="M5600 3600h200v200h-200z"/><path style="opacity:1;fill:#55bcc8;fill-opacity:1;stroke-width:1.11111104" d="M5400 3600h200v200h-200z"/><path style="opacity:1;fill:#6be6f5;fill-opacity:1;stroke-width:1.11111104" d="M5400 3400h200v200h-200z"/><path style="opacity:1;fill:#55bcc8;fill-opacity:1;stroke-width:1.11111104" d="M5600 3400h200v200h-200z"/><path style="opacity:1;fill:#6be6f5;fill-opacity:1;stroke-width:1.11111104" d="M5600 3200h200v200h-200z"/><path style="opacity:1;fill:#55bcc8;fill-opacity:1;stroke-width:1.11111104" d="M5400 3200h200v200h-200z"/><path style="opacity:1;fill:#6be6f5;fill-opacity:1;stroke-width:1.11111104" d="M5400 3000h200v200h-200z"/><path style="opacity:1;fill:#55bcc8;fill-opacity:1;stroke-width:1.11111104" d="M5600 3000h200v200h-200z"/><path style="opacity:1;fill:#6be6f5;fill-opacity:1;stroke-width:1.11111104" d="M5600 2800h200v200h-200z"/><path style="opacity:1;fill:#55bcc8;fill-opacity:1;stroke-width:1.11111104" d="M5400 2800h200v200h-200z"/><path style="opacity:1;fill:#6be6f5;fill-opacity:1;stroke-width:1.11111104" d="M5400 2600h200v200h-200z"/><path style="opacity:1;fill:#55bcc8;fill-opacity:1;stroke-width:1.11111104" d="M5600 2600h200v200h-200z"/><path style="opacity:1;fill:#6be6f5;fill-opacity:1;stroke-width:1.11111104" d="M5600 2400h200v200h-200z"/><path style="opacity:1;fill:#55bcc8;fill-opacity:1;stroke-width:1.11111104" d="M5400 2400h200v200h-200z"/><path style="opacity:1;fill:#6be6f5;fill-opacity:1;stroke-width:1.11111104" d="M5400 2200h200v200h-200z"/><path style="opacity:1;fill:#55bcc8;fill-opacity:1;stroke-width:1.11111104" d="M5600 2200h200v200h-200z"/><path style="opacity:1;fill:#6be6f5;fill-opacity:1;stroke-width:1.11111104" d="M5600 2000h200v200h-200z"/><path style="opacity:1;fill:#55bcc8;fill-opacity:1;stroke-width:1.11111104" d="M5400 2000h200v200h-200z"/><path style="opacity:1;fill:#6be6f5;fill-opacity:1;stroke-width:1.11111104" d="M5400 2200h200v200h-200z"/><path style="opacity:1;fill:#55bcc8;fill-opacity:1;stroke-width:1.11111104" d="M5600 2200h200v200h-200z"/><path style="opacity:1;fill:#6be6f5;fill-opacity:1;stroke-width:1.11111104" d="M5600 2000h200v200h-200z"/><path style="opacity:1;fill:#55bcc8;fill-opacity:1;stroke-width:1.11111104" d="M5400 2000h200v200h-200zM5200 1800h200v200h-200zM5000 1600h200v200h-200z"/><path style="opacity:1;fill:#6be6f5;fill-opacity:1;stroke-width:1.11111104" d="M5400 1800h200v200h-200zM5200 1600h200v200h-200zM5400 1600h200v200h-200zM5200 3600h200v200h-200z"/><path style="opacity:1;fill:#55bcc8;fill-opacity:1;stroke-width:1.11111104" d="M5200 3400h200v200h-200z"/><path style="opacity:1;fill:#6be6f5;fill-opacity:1;stroke-width:1.11111104" d="M5200 3200h200v200h-200z"/><path style="opacity:1;fill:#55bcc8;fill-opacity:1;stroke-width:1.11111104" d="M5200 3000h200v200h-200z"/><path style="opacity:1;fill:#6be6f5;fill-opacity:1;stroke-width:1.11111104" d="M5200 2800h200v200h-200z"/><path style="opacity:1;fill:#55bcc8;fill-opacity:1;stroke-width:1.11111104" d="M5200 2600h200v200h-200z"/><path style="opacity:1;fill:#6be6f5;fill-opacity:1;stroke-width:1.11111104" d="M5200 2400h200v200h-200z"/><path style="opacity:1;fill:#55bcc8;fill-opacity:1;stroke-width:1.11111104" d="M5200 2200h200v200h-200z"/><path style="opacity:1;fill:#6be6f5;fill-opacity:1;stroke-width:1.11111104" d="M5200 2000h200v200h-200z"/><path style="opacity:1;fill:#55bcc8;fill-opacity:1;stroke-width:1.11111104" d="M5200 4200h200v200h-200z"/><path style="opacity:1;fill:#6be6f5;fill-opacity:1;stroke-width:1.11111104" d="M5200 4000h200v200h-200z"/><path style="opacity:1;fill:#55bcc8;fill-opacity:1;stroke-width:1.11111104" d="M5200 3800h200v200h-200z"/><path style="opacity:1;fill:#55bcc8;fill-opacity:1;stroke-width:1.57134831" d="M5000 3800h200v400h-200z"/><path style="opacity:1;fill:#6be6f5;fill-opacity:1;stroke-width:4.96903992" d="M4800 1800h400v2000h-400z"/><path style="opacity:1;fill:#6be6f5;fill-opacity:1;stroke-width:1.57134831" d="M4800 3800h200v400h-200z"/><path style="opacity:1;fill:#fffefe;fill-opacity:1;stroke-width:1.57134831" d="M7000 7000h400v200h-400z"/></g></svg>