
<svg width="27" height="26" viewBox="0 0 27 26" fill="none" xmlns="http://www.w3.org/2000/svg">
<path fill-rule="evenodd" clip-rule="evenodd" d="M13.4988 0.000141575C6.04417 0.000141575 0 5.96793 0 13.33C0 19.2191 3.86782 24.2147 9.23234 25.9783C9.9078 26.1003 10.1539 25.6886 10.1539 25.3351C10.1539 25.0193 10.1422 24.1805 10.1351 23.0684C6.38009 23.8736 5.58768 21.2813 5.58768 21.2813C4.97356 19.7421 4.08846 19.3321 4.08846 19.3321C2.86271 18.5048 4.18125 18.5212 4.18125 18.5212C5.53628 18.6161 6.24902 19.8951 6.24902 19.8951C7.4532 21.9318 9.40901 21.3435 10.1782 21.0031C10.3008 20.1414 10.6489 19.5539 11.0351 19.2209C8.03744 18.8845 4.88568 17.7405 4.88568 12.6328C4.88568 11.1779 5.41193 9.98806 6.27552 9.05606C6.13621 8.71893 5.67301 7.36388 6.40731 5.5285C6.40731 5.5285 7.54106 5.17009 10.1201 6.89506C11.1966 6.59964 12.3519 6.45151 13.4997 6.44662C14.6459 6.45126 15.8012 6.59973 16.8794 6.89506C19.4567 5.17009 20.5881 5.5285 20.5881 5.5285C21.3249 7.36393 20.8616 8.71902 20.7225 9.05606C21.5877 9.9881 22.1107 11.1779 22.1107 12.6328C22.1107 17.7537 18.954 18.8806 15.9462 19.2102C16.431 19.6218 16.8628 20.4352 16.8628 21.6789C16.8628 23.4603 16.8464 24.898 16.8464 25.335C16.8464 25.6918 17.0892 26.1066 17.7746 25.9765C23.1351 24.2098 26.9997 19.2176 26.9997 13.3299C26.9997 5.96779 20.9546 0 13.4983 0" fill="#3F3356"/>
</svg>
