<svg xmlns="http://www.w3.org/2000/svg" xmlns:xlink="http://www.w3.org/1999/xlink" id="Capa_1" width="10rem" height="10rem" x="0" y="0" version="1.1" viewBox="0 0 478.2 478.2" xml:space="preserve" style="enable-background:new 0 0 478.2 478.2"><g><path fill="#FF647C" d="M128.1,227.6l42.1-42.1l-42.1-40.1l13.4-13.4l55.5,53.5L141.5,241L128.1,227.6z M133.9,344.3V363.4 c0,0,38.2-38.2,105.2-38.2c67,0,105.2,38.2,105.2,38.2V344.3c0,0-38.2-38.2-105.2-38.2C172.1,306.1,133.9,344.3,133.9,344.3z M336.6,132l-55.5,53.5l55.5,55.5l13.4-13.4l-42.1-42.1l42.1-40.1L336.6,132z M478.2,239.1C478.2,371.1,371.1,478.2,239.1,478.2 C107.1,478.2,0,371.1,0,239.1C0,107.1,107.1,0,239.1,0C371,0,478.2,107.1,478.2,239.1z M459,239.1C459,116.7,361.5,19.2,239.1,19.2 C116.7,19.2,19.2,116.7,19.2,239.1C19.2,361.5,116.7,459,239.1,459C361.5,459,459,361.5,459,239.1z"/></g></svg>