<svg width="24" height="24" viewBox="0 0 24 24" fill="none" xmlns="http://www.w3.org/2000/svg">
<path d="M20.7001 20.3995C20.7831 20.4825 20.7831 20.6171 20.7001 20.7001C20.6171 20.7831 20.4825 20.7831 20.3995 20.7001L16.9795 17.2801C16.8966 17.1971 16.8966 17.0625 16.9795 16.9795C17.0625 16.8966 17.1971 16.8966 17.2801 16.9795L20.7001 20.3995ZM10.2898 17.3423C6.39482 17.3423 3.2373 14.1848 3.2373 10.2898C3.2373 6.39482 6.39482 3.2373 10.2898 3.2373C14.1848 3.2373 17.3423 6.39482 17.3423 10.2898C17.3423 14.1848 14.1848 17.3423 10.2898 17.3423ZM10.2898 16.9173C13.9501 16.9173 16.9173 13.9501 16.9173 10.2898C16.9173 6.62954 13.9501 3.6623 10.2898 3.6623C6.62954 3.6623 3.6623 6.62954 3.6623 10.2898C3.6623 13.9501 6.62954 16.9173 10.2898 16.9173Z" fill="#3F3356" stroke="#ECEBED"/>
</svg>
