<?xml version="1.0" encoding="UTF-8" standalone="no"?>
<svg
   xmlns:dc="http://purl.org/dc/elements/1.1/"
   xmlns:cc="http://creativecommons.org/ns#"
   xmlns:rdf="http://www.w3.org/1999/02/22-rdf-syntax-ns#"
   xmlns:svg="http://www.w3.org/2000/svg"
   xmlns="http://www.w3.org/2000/svg"
   xmlns:sodipodi="http://sodipodi.sourceforge.net/DTD/sodipodi-0.dtd"
   xmlns:inkscape="http://www.inkscape.org/namespaces/inkscape"
   width="173.99968"
   height="155.90717"
   viewBox="0 0 173.99968 155.90717"
   version="1.1"
   id="svg10"
   sodipodi:docname="square_hackathon_logo.svg"
   style="fill:none"
   inkscape:version="0.92.4 5da689c313, 2019-01-14">
  <metadata
     id="metadata16">
    <rdf:RDF>
      <cc:Work
         rdf:about="">
        <dc:format>image/svg+xml</dc:format>
        <dc:type
           rdf:resource="http://purl.org/dc/dcmitype/StillImage" />
        <dc:title></dc:title>
      </cc:Work>
    </rdf:RDF>
  </metadata>
  <defs
     id="defs14" />
  <sodipodi:namedview
     pagecolor="#ffffff"
     bordercolor="#666666"
     borderopacity="1"
     objecttolerance="10"
     gridtolerance="10"
     guidetolerance="10"
     inkscape:pageopacity="0"
     inkscape:pageshadow="2"
     inkscape:window-width="2996"
     inkscape:window-height="1954"
     id="namedview12"
     showgrid="false"
     showguides="false"
     inkscape:pagecheckerboard="true"
     inkscape:zoom="4.2789026"
     inkscape:cx="70.001116"
     inkscape:cy="60.774416"
     inkscape:window-x="2"
     inkscape:window-y="44"
     inkscape:window-maximized="1"
     inkscape:current-layer="svg10" />
  <path
     d="m 125.606,0.00930269 h -9.06 c -0.675,0.03144839 -1.327,0.25288329 -1.882,0.63881429 C 114.11,1.03405 113.675,1.56878 113.411,2.19071 L 75.2367,105.193 36.9147,2.1956 C 36.6494,1.57362 36.2141,1.03906 35.6588,0.65321398 35.1035,0.26737098 34.4507,0.04588218 33.7753,0.01419058 h -9.0598 c -0.2708,-0.031339 -0.5451,0.011338 -0.7936,0.1234564 -0.2485,0.112119 -0.462,0.289504 -0.6178,0.513288 -0.1557,0.223785 -0.2479,0.48559502 -0.2667,0.75759502 -0.0188,0.27199 0.0365,0.54399 0.16,0.78707 L 67.9997,122.654 c 0.1107,0.284 0.2649,0.55 0.4569,0.786 L 63.6271,136.475 13.8724,2.20052 C 13.6084,1.57858 13.1741,1.04388 12.6196,0.65795198 12.065,0.27202198 11.4127,0.05055688 10.7378,0.01910848 H 1.67813 c -0.27037,-0.0296385 -0.54374,0.0141615 -0.79132899,0.1267555 -0.24759,0.112593 -0.460267,0.289832 -0.615634,0.513078 C 0.11580001,0.88218798 0.02349111,1.14318 0.00392246,1.41447 -0.01564619,1.68575 0.03825641,1.95728 0.15997501,2.20052 L 56.2477,153.523 c 0.2014,0.503 0.5257,0.947 0.9432,1.292 0.1069,0.33 0.3228,0.613 0.6122,0.803 0.2894,0.19 0.6349,0.276 0.9797,0.244 h 9.0597 c 0.3547,-0.006 0.7057,-0.074 1.0367,-0.202 0.3039,-0.056 0.5844,-0.201 0.8057,-0.417 0.5806,-0.378 1.0315,-0.925 1.2922,-1.567 L 127.124,2.1956 c 0.123,-0.24341 0.178,-0.51551 0.159,-0.78755 -0.019,-0.27205 -0.111,-0.53392502 -0.267,-0.75792402 -0.156,-0.224 -0.369,-0.401802 -0.617,-0.514608 -0.248,-0.1128055 -0.522,-0.1564033 -0.793,-0.12621529 z"
     id="path2"
     inkscape:connector-curvature="0"
     style="fill:#ffffff" />
  <path
     d="m 172.33,0.01111028 h -9.06 c -0.675,0.0314484 -1.327,0.2528827 -1.882,0.6388137 C 160.833,1.03585 160.399,1.57059 160.135,2.19252 L 103.989,153.717 c -0.122,0.243 -0.176,0.514 -0.156,0.786 0.019,0.271 0.111,0.532 0.267,0.755 0.155,0.223 0.368,0.401 0.615,0.513 0.248,0.113 0.521,0.157 0.792,0.127 h 9.059 c 0.675,-0.032 1.327,-0.254 1.882,-0.639 0.554,-0.386 0.989,-0.921 1.253,-1.542 L 173.838,2.1974 c 0.122,-0.24261 0.177,-0.51368 0.158,-0.78476 -0.018,-0.27107 -0.11,-0.53213602 -0.264,-0.75578902 -0.154,-0.223653 -0.366,-0.401644 -0.613,-0.515267 -0.246,-0.1136237 -0.519,-0.1586858 -0.789,-0.1304737 z"
     id="path4"
     inkscape:connector-curvature="0"
     style="fill:#ffffff" />
  <path
     d="m 116.3,87.6838 h -9.06 c -0.675,0.0315 -1.327,0.2529 -1.881,0.6389 -0.555,0.3859 -0.989,0.9206 -1.253,1.5425 L 80.4493,153.716 c -0.1225,0.241 -0.1775,0.512 -0.1593,0.782 0.0183,0.271 0.1092,0.532 0.263,0.755 0.1539,0.223 0.3651,0.401 0.6114,0.514 0.2463,0.113 0.5186,0.158 0.7883,0.13 h 9.0941 c 0.662,-0.034 1.3016,-0.251 1.8479,-0.627 0.5463,-0.375 0.978,-0.895 1.2474,-1.5 L 117.828,89.8456 c 0.119,-0.2432 0.171,-0.5139 0.149,-0.7839 -0.022,-0.2699 -0.116,-0.529 -0.272,-0.7501 -0.156,-0.2211 -0.369,-0.3961 -0.616,-0.5066 -0.248,-0.1104 -0.52,-0.1523 -0.789,-0.1212 z"
     id="path6"
     inkscape:connector-curvature="0"
     style="fill:#ffffff" />
  <path
     d="m 110.769,77.9712 h 9.06 c 0.675,-0.0315 1.327,-0.2529 1.881,-0.6389 0.555,-0.3859 0.989,-0.9206 1.253,-1.5425 L 150.255,2.13783 c 0.379,-1.01701 -0.054,-1.86695902 -0.982,-2.10769932 -0.069,-0.0037159 -0.138,-0.0037159 -0.207,0 h -9.619 c -0.251,0.004749 -0.499,0.0461303 -0.737,0.1228273 -0.629,0.225267 -1.188,0.611482 -1.622,1.12016202 -0.161,0.20376 -0.29,0.43072 -0.383,0.67312 L 109.143,76.3155 c -0.123,0.9384 0.525,1.6557 1.626,1.6557 z"
     id="path8"
     inkscape:connector-curvature="0"
     style="fill:#ffffff" />
</svg>
